# This file uses centimeters as units for non-parametric coordinates.

mtllib book.mtl
g default
v 2.982383 3.995276 59.178801
v 3.512180 3.995276 59.501951
v 2.982383 4.162535 59.178801
v 3.512180 4.162535 59.501951
v 3.558483 4.162535 58.234299
v 4.088280 4.162535 58.557449
v 3.558483 3.995276 58.234299
v 4.088280 3.995276 58.557449
v 2.957310 4.075176 59.163507
v 3.533409 4.075176 58.219006
v 4.088280 4.075176 58.557449
v 3.512180 4.075176 59.501951
vt 0.648519 0.336628
vt 0.648519 0.399500
vt 0.618485 0.399500
vt 0.618485 0.333652
vt 0.585647 0.399500
vt 0.585647 0.336628
vt 0.585647 0.330371
vt 0.522776 0.330371
vt 0.522775 0.399500
vt 0.522775 0.336628
vt 0.489938 0.333652
vt 0.489938 0.399499
vt 0.459904 0.399499
vt 0.459904 0.336628
vt 0.585647 0.432337
vt 0.522775 0.432337
vt 0.522775 0.525243
vt 0.522775 0.462371
vt 0.585647 0.462371
vt 0.585647 0.525243
vt 0.585647 0.320631
vt 0.522776 0.320631
vn -0.951800 -0.304962 -0.032777
vn -0.520729 0.000000 0.853722
vn -0.520729 0.000000 0.853722
vn -0.999310 -0.013551 -0.034584
vn 0.000000 1.000000 0.000000
vn 0.000000 1.000000 0.000000
vn 0.000000 1.000000 0.000000
vn 0.000000 1.000000 0.000000
vn -0.488116 -0.013551 -0.872673
vn 0.520729 0.000000 -0.853722
vn 0.520729 0.000000 -0.853722
vn -0.464766 -0.304962 -0.831259
vn 0.000000 -1.000000 0.000000
vn 0.000000 -1.000000 0.000000
vn 0.000000 -1.000000 0.000000
vn 0.000000 -1.000000 0.000000
vn 0.853722 0.000000 0.520729
vn 0.853722 0.000000 0.520729
vn 0.853722 0.000000 0.520729
vn 0.853722 0.000000 0.520729
vn -0.959095 0.281114 -0.033355
vn -0.468618 0.281114 -0.837480
vn 0.520729 0.000000 -0.853722
vn 0.853722 0.000000 0.520729
vn 0.853722 0.000000 0.520729
vn -0.520729 0.000000 0.853722
s 1
g book
usemtl lambert2SG
f 1/1/1 2/2/2 12/3/3 9/4/4
s off
f 3/6/5 4/5/6 6/9/7 5/10/8
s 1
f 10/11/9 11/12/10 8/13/11 7/14/12
s off
f 7/17/13 8/18/14 2/19/15 1/20/16
s 3
f 2/19/17 8/18/18 11/16/19 12/15/20
s 1
f 7/22/12 1/21/1 9/7/4 10/8/9
f 10/8/9 9/7/4 3/6/21 5/10/22
f 5/10/22 6/9/23 11/12/10 10/11/9
s 3
f 12/15/20 11/16/19 6/9/24 4/5/25
s 1
f 9/4/4 12/3/3 4/5/26 3/6/21
