# This file uses centimeters as units for non-parametric coordinates.

mtllib small_cabinet.mtl
g default
v 2.806785 0.359127 59.667456
v 5.672917 0.359127 59.667456
v 2.806785 3.902274 59.667456
v 5.672917 3.902274 59.667456
v 2.806785 3.902274 56.801324
v 5.672917 3.902274 56.801324
v 2.806785 0.359127 56.801324
v 5.672917 0.359127 56.801324
v 5.672917 2.746902 59.667456
v 2.806785 2.746902 59.667456
v 2.806785 2.746902 56.801324
v 5.672917 2.746902 56.801324
v 2.829779 0.387551 59.667456
v 5.649925 0.387551 59.667456
v 5.649925 2.737015 59.667456
v 2.829779 2.737015 59.667456
v 5.649925 3.873850 59.667456
v 2.829779 3.873850 59.667456
v 2.829779 0.387551 59.789511
v 5.649925 0.387551 59.789511
v 5.649925 2.737015 59.789511
v 2.829779 2.737015 59.789511
v 5.649925 3.873850 59.789511
v 2.829779 3.873850 59.789511
v 5.649925 2.802781 59.789511
v 2.829779 2.802781 59.789511
v 2.829779 2.802781 59.667456
v 2.806785 2.812667 59.667456
v 2.806785 2.812667 56.801324
v 5.672917 2.812667 56.801324
v 5.672917 2.812667 59.667456
v 5.649925 2.802781 59.667456
v 5.649925 2.737015 59.691538
v 2.829779 2.737015 59.691538
v 5.649925 2.802781 59.691538
v 2.829779 2.802781 59.691538
v 2.709365 3.899093 59.764877
v 5.770337 3.899093 59.764877
v 5.770337 3.999056 59.764877
v 2.709365 3.999056 59.764877
v 5.770337 3.899093 56.703904
v 5.770337 3.999056 56.703904
v 2.709365 3.899093 56.703904
v 2.709365 3.999056 56.703904
v 5.456377 1.792356 59.979112
v 5.561930 1.792356 59.979112
v 5.561930 1.800219 59.896797
v 5.456377 1.792356 59.896797
v 5.456377 1.792355 59.881218
v 5.456377 1.717008 59.902540
v 5.561930 1.792356 59.894060
v 5.561930 1.717008 59.915382
v 5.456377 1.792354 59.767364
v 5.456377 1.717008 59.754358
v 5.561930 1.792357 59.776926
v 5.561930 1.717008 59.763920
v 5.456377 2.554751 59.979112
v 5.561930 2.554751 59.979112
v 5.561930 2.546889 59.896797
v 5.456377 2.554751 59.896797
v 5.456377 2.554753 59.881218
v 5.456377 2.630100 59.902540
v 5.561930 2.554751 59.894060
v 5.561930 2.630100 59.915382
v 5.456377 2.554754 59.767364
v 5.456377 2.630100 59.754358
v 5.561930 2.554750 59.776926
v 5.561930 2.630100 59.763920
v 3.877142 3.750974 59.979112
v 3.877142 3.645420 59.979112
v 3.885005 3.645420 59.896797
v 3.877142 3.750974 59.896797
v 3.877141 3.750974 59.881218
v 3.801794 3.750974 59.902540
v 3.877142 3.645420 59.894060
v 3.801794 3.645420 59.915382
v 3.877140 3.750974 59.767364
v 3.801794 3.750974 59.754358
v 3.877143 3.645420 59.776926
v 3.801794 3.645420 59.763920
v 4.639537 3.750974 59.979112
v 4.639537 3.645420 59.979112
v 4.631674 3.645420 59.896797
v 4.639537 3.750974 59.896797
v 4.639539 3.750974 59.881218
v 4.714886 3.750974 59.902540
v 4.639537 3.645420 59.894060
v 4.714886 3.645420 59.915382
v 4.639540 3.750974 59.767364
v 4.714886 3.750974 59.754358
v 4.639536 3.645420 59.776926
v 4.714886 3.645420 59.763920
v 2.872354 0.431225 59.208233
v 2.872354 0.431225 59.453975
v 2.872354 0.218406 59.576846
v 2.872354 0.005587 59.453975
v 2.872354 0.005587 59.208233
v 2.872354 0.218406 59.085362
v 2.996162 0.431225 59.208233
v 2.996162 0.431225 59.453975
v 2.996162 0.218406 59.576846
v 2.996162 0.005587 59.453975
v 2.996162 0.005587 59.208233
v 2.996162 0.218406 59.085362
v 2.872354 0.218406 59.331104
v 2.996162 0.218406 59.331104
v 5.497484 0.431225 59.208233
v 5.497484 0.431225 59.453975
v 5.497484 0.218406 59.576846
v 5.497484 0.005587 59.453975
v 5.497484 0.005587 59.208233
v 5.497484 0.218406 59.085362
v 5.621292 0.431225 59.208233
v 5.621292 0.431225 59.453975
v 5.621292 0.218406 59.576846
v 5.621292 0.005587 59.453975
v 5.621292 0.005587 59.208233
v 5.621292 0.218406 59.085362
v 5.497484 0.218406 59.331104
v 5.621292 0.218406 59.331104
v 5.497484 0.431225 56.960995
v 5.497484 0.431225 57.206738
v 5.497484 0.218406 57.329608
v 5.497484 0.005587 57.206738
v 5.497484 0.005587 56.960995
v 5.497484 0.218406 56.838125
v 5.621292 0.431225 56.960995
v 5.621292 0.431225 57.206738
v 5.621292 0.218406 57.329608
v 5.621292 0.005587 57.206738
v 5.621292 0.005587 56.960995
v 5.621292 0.218406 56.838125
v 5.497484 0.218406 57.083866
v 5.621292 0.218406 57.083866
v 2.872354 0.431225 56.960995
v 2.872354 0.431225 57.206738
v 2.872354 0.218406 57.329608
v 2.872354 0.005587 57.206738
v 2.872354 0.005587 56.960995
v 2.872354 0.218406 56.838125
v 2.996162 0.431225 56.960995
v 2.996162 0.431225 57.206738
v 2.996162 0.218406 57.329608
v 2.996162 0.005587 57.206738
v 2.996162 0.005587 56.960995
v 2.996162 0.218406 56.838125
v 2.872354 0.218406 57.083866
v 2.996162 0.218406 57.083866
vt 0.000100 0.657839
vt 0.000100 0.500448
vt 0.142875 0.500448
vt 0.142874 0.657839
vt 0.374863 0.750568
vt 0.301573 0.750568
vt 0.301573 0.689509
vt 0.374863 0.689509
vt 0.374863 0.752249
vt 0.301573 0.752249
vt 0.374863 0.780112
vt 0.301573 0.780112
vt 0.374863 0.615936
vt 0.374864 0.689509
vt 0.301573 0.689509
vt 0.301573 0.615936
vt 0.019892 0.841338
vt 0.006866 0.840600
vt 0.374864 0.750568
vt 0.301573 0.750568
vt 0.374864 0.752249
vt 0.301573 0.752249
vt 0.374864 0.780112
vt 0.301573 0.780112
vt 0.301573 0.689509
vt 0.374863 0.689509
vt 0.374863 0.750568
vt 0.301573 0.750568
vt 0.374863 0.752249
vt 0.301573 0.752249
vt 0.374863 0.780112
vt 0.301573 0.780112
vt 0.145410 0.655749
vt 0.145411 0.502849
vt 0.150207 0.502849
vt 0.150395 0.655749
vt 0.301520 0.787616
vt 0.463299 0.787616
vt 0.455974 0.796281
vt 0.307012 0.796281
vt 0.463299 0.920904
vt 0.455974 0.920382
vt 0.301520 0.920904
vt 0.307012 0.920382
vt 0.463299 0.924378
vt 0.455974 0.923856
vt 0.301520 0.924378
vt 0.307012 0.923856
vt 0.463299 0.987737
vt 0.455974 0.980430
vt 0.301520 0.987737
vt 0.307012 0.980430
vt 0.018579 0.869761
vt 0.000853 0.857605
vt 0.455974 0.802728
vt 0.307012 0.802728
vt 0.000100 0.495256
vt 0.142874 0.495256
vt 0.005546 0.869158
vt 0.024449 0.844286
vt 0.153256 0.495256
vt 0.153256 0.500448
vt 0.211658 0.495256
vt 0.211658 0.500448
vt 0.142875 0.663340
vt 0.000100 0.663340
vt 0.020941 0.814211
vt 0.008112 0.813618
vt 0.153256 0.663340
vt 0.153256 0.657839
vt 0.211658 0.663340
vt 0.211658 0.657839
vt 0.224778 0.500448
vt 0.224778 0.657839
vt 0.007840 0.819506
vt 0.031791 0.834019
vt 0.004328 0.816647
vt 0.026775 0.830795
vt 0.024449 0.844286
vt 0.005546 0.869158
vt 0.026144 0.817445
vt 0.032362 0.827833
vt 0.024674 0.858706
vt 0.012764 0.858156
vt 0.032362 0.827833
vt 0.026144 0.817445
vt 0.000853 0.857605
vt 0.020873 0.820108
vt 0.015766 0.831807
vt 0.000319 0.826358
vt 0.015766 0.831807
vt 0.024674 0.858706
vt 0.031791 0.834019
vt 0.002423 0.829967
vt 0.000346 0.834703
vt 0.003543 0.841464
vt 0.229334 0.608331
vt 0.229334 0.478603
vt 0.231607 0.482229
vt 0.231607 0.605301
vt 0.018579 0.869761
vt 0.358870 0.478603
vt 0.355975 0.482229
vt 0.015766 0.831807
vt 0.000853 0.857605
vt 0.358870 0.608331
vt 0.355975 0.605301
vt 0.000319 0.826358
vt 0.003543 0.841464
vt 0.005546 0.869158
vt 0.008112 0.813618
vt 0.031791 0.834019
vt 0.355974 0.605301
vt 0.355974 0.482229
vt 0.358870 0.478603
vt 0.358870 0.608331
vt 0.231607 0.482229
vt 0.229334 0.478603
vt 0.231607 0.605301
vt 0.229334 0.608331
vt 0.004328 0.816647
vt 0.020873 0.820108
vt 0.006568 0.847038
vt 0.019601 0.847640
vt 0.018494 0.681383
vt 0.011872 0.681383
vt 0.011872 0.681383
vt 0.011872 0.674689
vt 0.018494 0.742084
vt 0.011872 0.742084
vt 0.000337 0.681383
vt 0.000337 0.674689
vt 0.011872 0.748145
vt 0.011872 0.742084
vt 0.000337 0.748145
vt 0.000337 0.742084
vt 0.010363 0.759801
vt 0.001872 0.759801
vt 0.001872 0.759801
vt 0.010363 0.760834
vt 0.001872 0.772787
vt 0.010363 0.772787
vt 0.011872 0.681383
vt 0.018494 0.681383
vt 0.011872 0.674689
vt 0.011872 0.681383
vt 0.011872 0.742084
vt 0.018494 0.742084
vt 0.000337 0.674689
vt 0.000337 0.681383
vt 0.011872 0.742084
vt 0.011872 0.748145
vt 0.000337 0.742084
vt 0.000337 0.748145
vt 0.001872 0.759801
vt 0.010363 0.760834
vt 0.010363 0.772787
vt 0.001872 0.772787
vt 0.001872 0.754674
vt 0.010363 0.754674
vt 0.028881 0.678460
vt 0.028881 0.739793
vt 0.020389 0.739793
vt 0.020389 0.678460
vt 0.028881 0.745855
vt 0.020389 0.745855
vt 0.001498 0.740149
vt 0.001498 0.682598
vt 0.009549 0.682598
vt 0.009549 0.740149
vt 0.010363 0.759801
vt 0.010363 0.760834
vt 0.001872 0.759801
vt 0.001872 0.759801
vt 0.010363 0.772787
vt 0.001872 0.772787
vt 0.001872 0.759801
vt 0.001872 0.772787
vt 0.010363 0.772787
vt 0.010363 0.760834
vt 0.018494 0.742084
vt 0.011872 0.742084
vt 0.011872 0.742084
vt 0.011872 0.748145
vt 0.018494 0.681383
vt 0.011872 0.681383
vt 0.000337 0.742084
vt 0.000337 0.748145
vt 0.011872 0.674689
vt 0.011872 0.681383
vt 0.000337 0.674689
vt 0.000337 0.681383
vt 0.010363 0.759801
vt 0.001872 0.759801
vt 0.001872 0.759801
vt 0.010363 0.760834
vt 0.001872 0.772787
vt 0.010363 0.772787
vt 0.011872 0.742084
vt 0.018494 0.742084
vt 0.011872 0.748145
vt 0.011872 0.742084
vt 0.011872 0.681383
vt 0.018494 0.681383
vt 0.000337 0.748145
vt 0.000337 0.742084
vt 0.011872 0.681383
vt 0.011872 0.674689
vt 0.000337 0.681383
vt 0.000337 0.674689
vt 0.001872 0.759801
vt 0.010363 0.760834
vt 0.010363 0.772787
vt 0.001872 0.772787
vt 0.001872 0.754674
vt 0.010363 0.754674
vt 0.020389 0.678460
vt 0.020389 0.739793
vt 0.028881 0.739793
vt 0.028881 0.678460
vt 0.020389 0.745855
vt 0.028881 0.745855
vt 0.001498 0.740149
vt 0.001498 0.682598
vt 0.009549 0.682598
vt 0.009549 0.740149
vt 0.010363 0.759801
vt 0.010363 0.760834
vt 0.001872 0.759801
vt 0.001872 0.759801
vt 0.010363 0.772787
vt 0.001872 0.772787
vt 0.010363 0.772787
vt 0.010363 0.760834
vt 0.001872 0.759801
vt 0.001872 0.772787
vt 0.019601 0.847640
vt 0.006568 0.847038
vt 0.006866 0.840600
vt 0.019892 0.841338
vt 0.000346 0.834703
vt 0.002423 0.829967
vt 0.004328 0.816647
vt 0.020941 0.814211
vt 0.020873 0.820108
vt 0.007840 0.819506
vt 0.000319 0.826358
vt 0.019892 0.841338
vt 0.026144 0.817445
vt 0.032362 0.827833
vt 0.026775 0.830795
vt 0.006568 0.847038
vt 0.024449 0.844286
vt 0.031791 0.834019
vt 0.018579 0.869761
vt 0.012764 0.858156
vt 0.012764 0.858156
vt 0.024674 0.858706
vt 0.000853 0.857605
vt 0.018579 0.869761
vt 0.005546 0.869158
vt 0.000346 0.834703
vt 0.003543 0.841464
vt 0.015766 0.831807
vt 0.003543 0.841464
vt 0.019601 0.847640
vt 0.006866 0.840600
vt 0.008112 0.813618
vt 0.019601 0.847640
vt 0.006568 0.847038
vt 0.006866 0.840600
vt 0.019892 0.841338
vt 0.000346 0.834703
vt 0.002423 0.829967
vt 0.004328 0.816647
vt 0.020941 0.814211
vt 0.020873 0.820108
vt 0.007840 0.819506
vt 0.000319 0.826358
vt 0.008112 0.813618
vt 0.026144 0.817445
vt 0.032362 0.827833
vt 0.026775 0.830795
vt 0.007840 0.819506
vt 0.024449 0.844286
vt 0.020941 0.814211
vt 0.026775 0.830795
vt 0.002423 0.829967
vt 0.012764 0.858156
vt 0.024674 0.858706
vn 0.000000 0.000000 1.000000
vn 0.000000 0.000000 1.000000
vn 0.000000 0.000000 1.000000
vn 0.000000 0.000000 1.000000
vn 0.000000 0.000000 -1.000000
vn 0.000000 0.000000 -1.000000
vn 0.000000 0.000000 -1.000000
vn 0.000000 0.000000 -1.000000
vn 0.000000 -1.000000 0.000000
vn 0.000000 -1.000000 0.000000
vn 0.000000 -1.000000 0.000000
vn 0.000000 -1.000000 0.000000
vn 1.000000 0.000000 0.000000
vn 1.000000 0.000000 0.000000
vn 1.000000 0.000000 0.000000
vn 1.000000 0.000000 0.000000
vn -1.000000 0.000000 0.000000
vn -1.000000 0.000000 0.000000
vn -1.000000 0.000000 0.000000
vn -1.000000 0.000000 0.000000
vn 0.000000 0.000000 1.000000
vn 0.000000 0.000000 1.000000
vn 0.000000 0.000000 1.000000
vn 0.000000 0.000000 1.000000
vn -1.000000 0.000000 0.000000
vn -1.000000 0.000000 0.000000
vn 0.000000 0.000000 -1.000000
vn 0.000000 0.000000 -1.000000
vn 1.000000 0.000000 0.000000
vn 1.000000 0.000000 0.000000
vn 0.000000 0.000000 1.000000
vn 0.000000 0.000000 1.000000
vn 0.000000 0.000000 1.000000
vn 0.000000 0.000000 1.000000
vn 0.000010 0.000000 1.000000
vn 0.000010 0.000000 1.000000
vn 0.000010 0.000000 1.000000
vn 0.000010 0.000000 1.000000
vn -0.000005 0.000000 1.000000
vn -0.000005 0.000000 1.000000
vn -0.000005 0.000000 1.000000
vn -0.000005 0.000000 1.000000
vn 0.000010 0.000000 1.000000
vn -0.000005 0.000000 1.000000
vn -0.000005 0.000000 1.000000
vn 0.000010 0.000000 1.000000
vn 0.000000 0.000000 1.000000
vn 0.000000 0.000000 1.000000
vn 0.000000 0.000000 1.000000
vn 0.000000 0.000000 1.000000
vn 0.000008 0.000000 1.000000
vn 0.000005 0.000000 1.000000
vn 0.000005 0.000000 1.000000
vn 0.000008 0.000000 1.000000
vn 0.000000 -1.000000 0.000000
vn 0.000000 -1.000000 0.000000
vn 0.000000 -1.000000 0.000000
vn 0.000000 -1.000000 0.000000
vn 1.000000 0.000000 0.000000
vn 1.000000 0.000000 0.000000
vn 1.000000 0.000000 0.000000
vn 1.000000 0.000000 0.000000
vn -1.000000 0.000000 0.000000
vn -1.000000 0.000000 0.000000
vn -1.000000 0.000000 0.000000
vn -1.000000 0.000000 0.000000
vn 1.000000 0.000000 0.000000
vn 1.000000 0.000000 0.000000
vn 1.000000 0.000000 0.000000
vn 1.000000 0.000000 0.000000
vn 0.000000 1.000000 0.000000
vn 0.000000 1.000000 0.000000
vn 0.000000 1.000000 0.000000
vn 0.000000 1.000000 0.000000
vn -1.000000 0.000000 0.000000
vn -1.000000 0.000000 0.000000
vn -1.000000 0.000000 0.000000
vn -1.000000 0.000000 0.000000
vn 0.000000 0.000000 1.000000
vn 0.000000 0.000000 1.000000
vn 0.000000 0.000000 1.000000
vn 0.000000 0.000000 1.000000
vn -1.000000 0.000000 0.000000
vn -1.000000 0.000000 0.000000
vn 0.000011 0.000000 1.000000
vn 0.000011 0.000000 1.000000
vn -1.000000 0.000000 0.000000
vn -1.000000 0.000000 0.000000
vn 0.000000 0.000000 -1.000000
vn 0.000000 0.000000 -1.000000
vn 1.000000 0.000000 0.000000
vn 1.000000 0.000000 0.000000
vn -0.000019 0.000000 1.000000
vn -0.000019 0.000000 1.000000
vn 1.000000 0.000000 0.000000
vn 1.000000 0.000000 0.000000
vn 0.000000 1.000000 0.000000
vn 0.000000 1.000000 0.000000
vn 0.000000 1.000000 0.000000
vn 0.000000 1.000000 0.000000
vn -1.000000 0.000000 0.000000
vn -1.000000 0.000000 0.000000
vn -1.000000 0.000000 0.000000
vn -1.000000 0.000000 0.000000
vn 0.000000 -1.000000 0.000000
vn 0.000000 -1.000000 0.000000
vn 0.000000 -1.000000 0.000000
vn 0.000000 -1.000000 0.000000
vn 1.000000 0.000000 0.000000
vn 1.000000 0.000000 0.000000
vn 1.000000 0.000000 0.000000
vn 1.000000 0.000000 0.000000
vn 0.000000 0.000000 1.000000
vn 0.000000 0.000000 1.000000
vn 0.000000 0.000000 1.000000
vn 0.000000 0.000000 1.000000
vn 1.000000 0.000000 0.000000
vn 1.000000 0.000000 0.000000
vn 1.000000 0.000000 0.000000
vn 1.000000 0.000000 0.000000
vn 0.000000 0.000000 -1.000000
vn 0.000000 0.000000 -1.000000
vn 0.000000 0.000000 -1.000000
vn 0.000000 0.000000 -1.000000
vn -1.000000 0.000000 0.000000
vn -1.000000 0.000000 0.000000
vn -1.000000 0.000000 0.000000
vn -1.000000 0.000000 0.000000
vn 0.000000 -0.999467 -0.032639
vn 0.000000 -0.999467 -0.032639
vn 0.000000 -0.999467 -0.032639
vn 0.000000 -0.999467 -0.032639
vn -0.032640 -0.999467 0.000000
vn -0.032640 -0.999467 0.000000
vn -0.032640 -0.999467 0.000000
vn -0.032640 -0.999467 0.000000
vn 0.000000 1.000000 0.000000
vn 0.000000 1.000000 0.000000
vn 0.000000 1.000000 0.000000
vn 0.000000 1.000000 0.000000
vn 0.000000 -0.999467 0.032639
vn 0.000000 -0.999467 0.032639
vn 0.000000 -0.999467 0.032639
vn 0.000000 -0.999467 0.032639
vn 0.032640 -0.999467 0.000000
vn 0.032640 -0.999467 0.000000
vn 0.032640 -0.999467 0.000000
vn 0.032640 -0.999467 0.000000
vn -0.739654 -0.246275 0.626307
vn -0.769193 0.351583 -0.533603
vn -0.716182 0.683614 -0.140556
vn -0.744587 -0.612112 0.266289
vn 0.765970 0.353703 -0.536828
vn 0.712599 0.687197 -0.141294
vn 0.724543 -0.252224 0.641420
vn 0.729612 -0.627092 0.272804
vn -0.707116 0.707098 0.000001
vn -0.707107 -0.707107 0.000000
vn 0.707098 0.707116 0.000001
vn 0.707107 -0.707107 0.000000
vn 0.724543 0.252224 0.641421
vn -0.739653 0.246280 0.626306
vn 0.765971 -0.353705 -0.536825
vn -0.769196 -0.351580 -0.533600
vn -0.744584 0.612115 0.266289
vn -0.716184 -0.683612 -0.140552
vn 0.712599 -0.687197 -0.141290
vn 0.729611 0.627092 0.272805
vn -0.707107 0.707107 0.000000
vn -0.707116 -0.707098 0.000002
vn 0.707099 -0.707115 0.000002
vn 0.707106 0.707108 0.000000
vn -0.246277 0.739654 0.626307
vn 0.351574 0.769192 -0.533610
vn 0.683608 0.716185 -0.140565
vn -0.612112 0.744586 0.266290
vn 0.353700 -0.765966 -0.536836
vn 0.687196 -0.712598 -0.141302
vn -0.252220 -0.724543 0.641422
vn -0.627090 -0.729613 0.272807
vn 0.707098 0.707115 0.000001
vn -0.707107 0.707107 0.000000
vn 0.707115 -0.707098 0.000001
vn -0.707107 -0.707107 -0.000001
vn 0.252220 -0.724543 0.641422
vn 0.246277 0.739654 0.626306
vn -0.353697 -0.765965 -0.536839
vn -0.351572 0.769190 -0.533614
vn 0.612112 0.744586 0.266289
vn -0.683608 0.716185 -0.140570
vn -0.687194 -0.712599 -0.141306
vn 0.627090 -0.729613 0.272807
vn 0.707107 0.707107 0.000000
vn -0.707099 0.707114 0.000001
vn -0.707114 -0.707099 0.000001
vn 0.707107 -0.707107 0.000000
vn -0.755929 0.566947 -0.327327
vn -0.755929 0.566947 0.327327
vn 0.755929 0.566947 0.327327
vn 0.755929 0.566947 -0.327327
vn -0.755929 0.000000 0.654653
vn 0.755929 0.000000 0.654653
vn -0.755929 -0.566947 0.327327
vn 0.755929 -0.566947 0.327327
vn -0.755929 -0.566947 -0.327327
vn 0.755929 -0.566947 -0.327327
vn -0.755929 -0.000000 -0.654654
vn 0.755929 -0.000000 -0.654654
vn -1.000000 0.000000 0.000000
vn 1.000000 0.000000 0.000000
vn -0.755929 0.566946 -0.327327
vn -0.755929 0.566947 0.327327
vn 0.755929 0.566947 0.327327
vn 0.755929 0.566946 -0.327327
vn -0.755929 0.000000 0.654654
vn 0.755929 0.000001 0.654654
vn -0.755929 -0.566947 0.327327
vn 0.755929 -0.566947 0.327327
vn -0.755929 -0.566946 -0.327327
vn 0.755929 -0.566946 -0.327327
vn -0.755929 -0.000000 -0.654654
vn 0.755929 -0.000000 -0.654654
vn -1.000000 0.000000 0.000000
vn 1.000000 0.000000 0.000000
vn -0.755929 0.566946 -0.327328
vn -0.755929 0.566946 0.327328
vn 0.755929 0.566946 0.327328
vn 0.755929 0.566946 -0.327328
vn -0.755928 0.000000 0.654654
vn 0.755928 0.000000 0.654654
vn -0.755929 -0.566946 0.327328
vn 0.755929 -0.566946 0.327328
vn -0.755929 -0.566946 -0.327328
vn 0.755929 -0.566946 -0.327328
vn -0.755928 -0.000000 -0.654654
vn 0.755928 -0.000000 -0.654654
vn -1.000000 0.000000 0.000000
vn 1.000000 0.000000 0.000000
vn -0.755929 0.566946 -0.327327
vn -0.755929 0.566946 0.327327
vn 0.755929 0.566946 0.327327
vn 0.755929 0.566946 -0.327327
vn -0.755929 0.000000 0.654654
vn 0.755929 0.000000 0.654654
vn -0.755929 -0.566946 0.327327
vn 0.755929 -0.566946 0.327327
vn -0.755929 -0.566946 -0.327327
vn 0.755929 -0.566946 -0.327327
vn -0.755929 -0.000000 -0.654654
vn 0.755929 -0.000000 -0.654654
vn -1.000000 0.000000 0.000000
vn 1.000000 0.000000 0.000000
s off
g small_cabinet
usemtl lambert2SG
f 19/1/1 20/2/2 21/3/3 22/4/4
s 1
f 11/5/5 12/6/6 8/7/7 7/8/8
s off
f 7/13/9 8/14/10 2/15/11 1/16/12
s 2
f 2/15/13 8/14/14 12/19/15 9/20/16
s 3
f 7/25/17 1/26/18 10/27/19 11/28/20
s off
f 34/33/21 33/34/22 35/35/23 36/36/24
s 3
f 11/28/20 10/27/19 28/29/25 29/30/26
s 1
f 29/9/27 30/10/28 12/6/6 11/5/5
s 2
f 9/20/16 12/19/15 30/21/29 31/22/30
s off
f 1/37/31 2/38/32 14/39/33 13/40/34
f 2/38/35 9/41/36 15/42/37 14/39/38
f 10/43/39 1/37/40 13/40/41 16/44/42
s 4
f 9/41/43 31/45/44 32/46/45 15/42/46
s off
f 4/49/47 3/51/48 18/52/49 17/50/50
s 5
f 28/47/51 10/43/52 16/44/53 27/48/54
s off
f 13/40/55 14/39/56 20/55/57 19/56/58
f 14/57/59 15/58/60 21/3/61 20/2/62
f 16/65/63 13/66/64 19/1/65 22/4/66
s 6
f 15/58/67 32/61/68 25/62/69 21/3/70
s off
f 17/73/71 18/74/72 24/72/73 23/64/74
s 7
f 27/69/75 16/65/76 22/4/77 26/70/78
s off
f 26/70/79 25/62/80 23/64/81 24/72/82
s 7
f 18/71/83 27/69/75 26/70/78 24/72/84
s 5
f 3/51/85 28/47/51 27/48/54 18/52/86
s 3
f 29/30/26 28/29/25 3/31/87 5/32/88
s 1
f 5/11/89 6/12/90 30/10/28 29/9/27
s 2
f 31/22/30 30/21/29 6/23/91 4/24/92
s 4
f 32/46/45 31/45/44 4/49/93 17/50/94
s 6
f 25/62/69 32/61/68 17/63/95 23/64/96
s off
f 22/4/97 21/3/98 33/34/99 34/33/100
f 21/3/101 25/62/102 35/35/103 33/34/104
f 25/62/105 26/70/106 36/36/107 35/35/108
f 26/70/109 22/4/110 34/33/111 36/36/112
f 37/97/113 38/98/114 39/99/115 40/100/116
f 38/98/117 41/102/118 42/103/119 39/99/120
f 41/102/121 43/106/122 44/107/123 42/103/124
f 43/106/125 37/97/126 40/100/127 44/107/128
f 3/113/129 4/114/130 38/115/131 37/116/132
f 4/114/133 6/117/134 41/118/135 38/115/136
f 40/100/137 39/99/138 42/103/139 44/107/140
f 6/117/141 5/119/142 43/120/143 41/118/144
f 5/119/145 3/113/146 37/116/147 43/120/148
s 8
f 45/125/149 48/126/150 49/127/151 50/128/152
f 48/137/150 47/138/153 51/139/154 49/140/151
f 47/143/153 46/144/155 52/145/156 51/146/154
f 46/159/155 45/160/149 50/156/152 52/155/156
f 50/128/152 49/127/151 53/131/157 54/132/158
f 49/140/151 51/139/154 55/141/159 53/142/157
f 51/146/154 52/145/156 56/149/160 55/150/159
f 52/155/156 50/156/152 54/157/158 56/158/160
f 46/161/155 58/162/161 57/163/162 45/164/149
f 47/143/153 59/147/163 58/148/161 46/144/155
f 48/167/150 60/168/164 59/169/163 47/170/153
f 45/125/149 57/129/162 60/130/164 48/126/150
f 57/129/162 62/133/165 61/134/166 60/130/164
f 60/171/164 61/172/166 63/173/167 59/174/163
f 59/147/163 63/151/167 64/152/168 58/148/161
f 58/162/161 64/165/168 62/166/165 57/163/162
f 62/133/165 66/135/169 65/136/170 61/134/166
f 61/172/166 65/175/170 67/176/171 63/173/167
f 63/151/167 67/153/171 68/154/172 64/152/168
f 64/177/168 68/178/172 66/179/169 62/180/165
s 9
f 69/181/173 72/182/174 73/183/175 74/184/176
f 72/193/174 71/194/177 75/195/178 73/196/175
f 71/199/177 70/200/179 76/201/180 75/202/178
f 70/215/179 69/216/173 74/212/176 76/211/180
f 74/184/176 73/183/175 77/187/181 78/188/182
f 73/196/175 75/195/178 79/197/183 77/198/181
f 75/202/178 76/201/180 80/205/184 79/206/183
f 76/211/180 74/212/176 78/213/182 80/214/184
f 70/217/179 82/218/185 81/219/186 69/220/173
f 71/199/177 83/203/187 82/204/185 70/200/179
f 72/223/174 84/224/188 83/225/187 71/226/177
f 69/181/173 81/185/186 84/186/188 72/182/174
f 81/185/186 86/189/189 85/190/190 84/186/188
f 84/227/188 85/228/190 87/229/191 83/230/187
f 83/203/187 87/207/191 88/208/192 82/204/185
f 82/218/185 88/221/192 86/222/189 81/219/186
f 86/189/189 90/191/193 89/192/194 85/190/190
f 85/228/190 89/231/194 91/232/195 87/229/191
f 87/207/191 91/209/195 92/210/196 88/208/192
f 88/233/192 92/234/196 90/235/193 86/236/189
s 10
f 93/237/197 94/238/198 100/239/199 99/240/200
f 94/265/198 95/241/201 101/242/202 100/239/199
f 95/247/201 96/243/203 102/246/204 101/242/202
f 96/268/203 97/244/205 103/245/206 102/246/204
f 97/249/205 98/250/207 104/251/208 103/245/206
f 98/254/207 93/253/197 99/240/200 104/251/208
f 94/238/198 93/237/197 105/257/209
f 95/259/201 94/238/198 105/257/209
f 96/261/203 95/259/201 105/257/209
f 97/260/205 96/261/203 105/257/209
f 98/258/207 97/260/205 105/257/209
f 93/237/197 98/258/207 105/257/209
f 99/240/200 100/239/199 106/264/210
f 100/239/199 101/242/202 106/264/210
f 101/242/202 102/246/204 106/264/210
f 102/246/204 103/245/206 106/264/210
f 103/245/206 104/251/208 106/264/210
f 104/251/208 99/240/200 106/264/210
s 11
f 107/269/211 108/270/212 114/271/213 113/272/214
f 108/109/212 109/273/215 115/274/216 114/271/213
f 109/279/215 110/275/217 116/278/218 115/274/216
f 110/280/217 111/276/219 117/277/220 116/278/218
f 111/281/219 112/282/221 118/283/222 117/277/220
f 112/112/221 107/285/211 113/272/214 118/283/222
f 108/270/212 107/269/211 119/289/223
f 109/105/215 108/270/212 119/289/223
f 110/110/217 109/105/215 119/289/223
f 111/101/219 110/110/217 119/289/223
f 112/290/221 111/101/219 119/289/223
f 107/269/211 112/290/221 119/289/223
f 113/272/214 114/271/213 120/104/224
f 114/271/213 115/274/216 120/104/224
f 115/274/216 116/278/218 120/104/224
f 116/278/218 117/277/220 120/104/224
f 117/277/220 118/283/222 120/104/224
f 118/283/222 113/272/214 120/104/224
s 12
f 121/124/225 122/123/226 128/18/227 127/17/228
f 122/96/226 123/95/229 129/94/230 128/18/227
f 123/90/229 124/77/231 130/75/232 129/94/230
f 124/68/231 125/67/233 131/88/234 130/75/232
f 125/86/233 126/85/235 132/78/236 131/88/234
f 126/76/235 121/60/225 127/17/228 132/78/236
f 122/123/226 121/124/225 133/84/237
f 123/54/229 122/123/226 133/84/237
f 124/80/231 123/54/229 133/84/237
f 125/53/233 124/80/231 133/84/237
f 126/83/235 125/53/233 133/84/237
f 121/124/225 126/83/235 133/84/237
f 127/17/228 128/18/227 134/89/238
f 128/18/227 129/94/230 134/89/238
f 129/94/230 130/75/232 134/89/238
f 130/75/232 131/88/234 134/89/238
f 131/88/234 132/78/236 134/89/238
f 132/78/236 127/17/228 134/89/238
s 13
f 135/266/239 136/252/240 142/267/241 141/248/242
f 136/263/240 137/262/243 143/288/244 142/267/241
f 137/108/243 138/121/245 144/284/246 143/288/244
f 138/111/245 139/286/247 145/122/248 144/284/246
f 139/81/247 140/82/249 146/287/250 145/122/248
f 140/93/249 135/79/239 141/248/242 146/287/250
f 136/252/240 135/266/239 147/256/251
f 137/87/243 136/252/240 147/256/251
f 138/59/245 137/87/243 147/256/251
f 139/255/247 138/59/245 147/256/251
f 140/92/249 139/255/247 147/256/251
f 135/266/239 140/92/249 147/256/251
f 141/248/242 142/267/241 148/91/252
f 142/267/241 143/288/244 148/91/252
f 143/288/244 144/284/246 148/91/252
f 144/284/246 145/122/248 148/91/252
f 145/122/248 146/287/250 148/91/252
f 146/287/250 141/248/242 148/91/252
