# This file uses centimeters as units for non-parametric coordinates.

mtllib noticeboard.mtl
g default
v -2.310851 5.795773 56.825218
v 2.310851 5.795773 56.825218
v -2.310851 8.290218 56.825218
v 2.310851 8.290218 56.825218
v -2.310851 8.290218 56.697108
v 2.310851 8.290218 56.697108
v -2.310851 5.795773 56.697108
v 2.310851 5.795773 56.697108
v -2.189873 5.861067 56.825218
v 2.189873 5.861067 56.825218
v 2.189873 8.224924 56.825218
v -2.189873 8.224924 56.825218
v -2.189873 5.861067 56.722968
v 2.189873 5.861067 56.722968
v 2.189873 8.224924 56.722968
v -2.189873 8.224924 56.722968
vt 0.019729 0.456986
vt 0.019729 0.156957
vt 0.181238 0.156957
vt 0.181238 0.456986
vt 0.187259 0.466761
vt 0.187259 0.148613
vt 0.196094 0.148613
vt 0.196094 0.466761
vt 0.006391 0.466761
vt 0.006391 0.148613
vt 0.015226 0.148613
vt 0.015226 0.466761
vt 0.015369 0.148613
vt 0.015226 0.139778
vt 0.187259 0.139778
vt 0.015369 0.466761
vt 0.015226 0.476190
vt 0.187259 0.466761
vt 0.187259 0.148614
vt 0.187259 0.476190
vt 0.181238 0.156957
vt 0.181238 0.456986
vt 0.019729 0.156957
vt 0.019729 0.456986
vn 0.000000 0.000000 1.000000
vn 0.000000 0.000000 1.000000
vn 0.000000 0.000000 1.000000
vn 0.000000 0.000000 1.000000
vn 0.000000 1.000000 0.000000
vn 0.000000 1.000000 0.000000
vn 0.000000 1.000000 0.000000
vn 0.000000 1.000000 0.000000
vn 0.000000 -1.000000 0.000000
vn 0.000000 -1.000000 0.000000
vn 0.000000 -1.000000 0.000000
vn 0.000000 -1.000000 0.000000
vn 1.000000 0.000000 0.000000
vn 1.000000 0.000000 0.000000
vn 1.000000 0.000000 0.000000
vn 1.000000 0.000000 0.000000
vn -1.000000 0.000000 0.000000
vn -1.000000 0.000000 0.000000
vn -1.000000 0.000000 0.000000
vn -1.000000 0.000000 0.000000
vn 0.000000 0.000000 1.000000
vn 0.000000 0.000000 1.000000
vn 0.000000 0.000000 1.000000
vn 0.000000 0.000000 1.000000
vn -0.000002 0.000000 1.000000
vn -0.000002 0.000000 1.000000
vn -0.000002 0.000000 1.000000
vn -0.000002 0.000000 1.000000
vn 0.000000 0.000000 1.000000
vn 0.000000 0.000000 1.000000
vn 0.000000 0.000000 1.000000
vn 0.000000 0.000000 1.000000
vn 0.000002 0.000000 1.000000
vn 0.000002 0.000000 1.000000
vn 0.000002 0.000000 1.000000
vn 0.000002 0.000000 1.000000
vn 0.000000 1.000000 0.000000
vn 0.000000 1.000000 0.000000
vn 0.000000 1.000000 0.000000
vn 0.000000 1.000000 0.000000
vn -1.000000 0.000000 0.000000
vn -1.000000 0.000000 0.000000
vn -1.000000 0.000000 0.000000
vn -1.000000 0.000000 0.000000
vn 0.000000 -1.000000 0.000000
vn 0.000000 -1.000000 0.000000
vn 0.000000 -1.000000 0.000000
vn 0.000000 -1.000000 0.000000
vn 1.000000 0.000000 0.000000
vn 1.000000 0.000000 0.000000
vn 1.000000 0.000000 0.000000
vn 1.000000 0.000000 0.000000
s off
g Noticeboard Noticeboard_ControlPanel
usemtl lambert2SG
f 13/1/1 14/2/2 15/3/3 16/4/4
f 3/5/5 4/6/6 6/7/7 5/8/8
f 7/9/9 8/10/10 2/11/11 1/12/12
f 2/11/13 8/14/14 6/15/15 4/6/16
f 7/17/17 1/12/18 3/5/19 5/20/20
f 1/12/21 2/11/22 10/23/23 9/24/24
f 2/11/25 4/6/26 11/21/27 10/23/28
f 4/6/29 3/5/30 12/22/31 11/21/32
f 3/5/33 1/12/34 9/24/35 12/22/36
f 9/16/37 10/13/38 14/2/39 13/1/40
f 10/13/41 11/19/42 15/3/43 14/2/44
f 11/19/45 12/18/46 16/4/47 15/3/48
f 12/18/49 9/16/50 13/1/51 16/4/52
